<svg width="142" height="61" viewBox="0 0 142 61" fill="none" xmlns="http://www.w3.org/2000/svg">
<g opacity="0.3" clip-path="url(#clip0_484_7939)">
<path d="M8.875 56.6429C8.875 54.2365 6.88826 52.2857 4.4375 52.2857C1.98674 52.2857 8.06543e-08 54.2365 5.19584e-08 56.6429C2.32626e-08 59.0492 1.98674 61 4.4375 61C6.88826 61 8.875 59.0492 8.875 56.6429Z" fill="black"/>
<path d="M8.875 30.5C8.875 28.0937 6.88826 26.1429 4.4375 26.1429C1.98674 26.1429 8.06543e-08 28.0937 5.19584e-08 30.5C2.32626e-08 32.9064 1.98674 34.8572 4.4375 34.8572C6.88826 34.8572 8.875 32.9064 8.875 30.5Z" fill="black"/>
<path d="M8.875 4.35721C8.875 1.95083 6.88826 6.97004e-05 4.4375 6.96711e-05C1.98674 6.96419e-05 8.06543e-08 1.95083 5.19584e-08 4.35721C2.32626e-08 6.7636 1.98674 8.71436 4.4375 8.71436C6.88826 8.71436 8.875 6.7636 8.875 4.35721Z" fill="black"/>
<path d="M35.5 56.6429C35.5 54.2365 33.5133 52.2857 31.0625 52.2857C28.6117 52.2857 26.625 54.2365 26.625 56.6429C26.625 59.0492 28.6117 61 31.0625 61C33.5133 61 35.5 59.0492 35.5 56.6429Z" fill="black"/>
<path d="M62.125 56.6429C62.125 54.2365 60.1383 52.2857 57.6875 52.2857C55.2367 52.2857 53.25 54.2365 53.25 56.6429C53.25 59.0492 55.2367 61 57.6875 61C60.1383 61 62.125 59.0492 62.125 56.6429Z" fill="black"/>
<path d="M88.75 56.6429C88.75 54.2365 86.7633 52.2857 84.3125 52.2857C81.8617 52.2857 79.875 54.2365 79.875 56.6429C79.875 59.0492 81.8617 61 84.3125 61C86.7633 61 88.75 59.0492 88.75 56.6429Z" fill="black"/>
<path d="M115.375 56.6429C115.375 54.2365 113.388 52.2857 110.938 52.2857C108.487 52.2857 106.5 54.2365 106.5 56.6429C106.5 59.0492 108.487 61 110.938 61C113.388 61 115.375 59.0492 115.375 56.6429Z" fill="black"/>
<path d="M142 56.6429C142 54.2365 140.013 52.2857 137.563 52.2857C135.112 52.2857 133.125 54.2365 133.125 56.6429C133.125 59.0492 135.112 61 137.562 61C140.013 61 142 59.0492 142 56.6429Z" fill="black"/>
<path d="M35.5 30.5C35.5 28.0937 33.5133 26.1429 31.0625 26.1429C28.6117 26.1429 26.625 28.0937 26.625 30.5C26.625 32.9064 28.6117 34.8572 31.0625 34.8572C33.5133 34.8572 35.5 32.9064 35.5 30.5Z" fill="black"/>
<path d="M62.125 30.5C62.125 28.0937 60.1383 26.1429 57.6875 26.1429C55.2367 26.1429 53.25 28.0937 53.25 30.5C53.25 32.9064 55.2367 34.8572 57.6875 34.8572C60.1383 34.8572 62.125 32.9064 62.125 30.5Z" fill="black"/>
<path d="M88.75 30.5C88.75 28.0937 86.7633 26.1429 84.3125 26.1429C81.8617 26.1429 79.875 28.0937 79.875 30.5C79.875 32.9064 81.8617 34.8572 84.3125 34.8572C86.7633 34.8572 88.75 32.9064 88.75 30.5Z" fill="black"/>
<path d="M115.375 30.5C115.375 28.0937 113.388 26.1429 110.938 26.1429C108.487 26.1429 106.5 28.0937 106.5 30.5C106.5 32.9064 108.487 34.8572 110.938 34.8572C113.388 34.8572 115.375 32.9064 115.375 30.5Z" fill="black"/>
<path d="M142 30.5C142 28.0937 140.013 26.1429 137.563 26.1429C135.112 26.1429 133.125 28.0937 133.125 30.5C133.125 32.9064 135.112 34.8572 137.562 34.8572C140.013 34.8572 142 32.9064 142 30.5Z" fill="black"/>
<path d="M35.5 4.35721C35.5 1.95083 33.5133 6.97004e-05 31.0625 6.96711e-05C28.6117 6.96419e-05 26.625 1.95083 26.625 4.35721C26.625 6.7636 28.6117 8.71436 31.0625 8.71436C33.5133 8.71436 35.5 6.7636 35.5 4.35721Z" fill="black"/>
<path d="M62.125 4.35721C62.125 1.95083 60.1383 6.97004e-05 57.6875 6.96711e-05C55.2367 6.96419e-05 53.25 1.95083 53.25 4.35721C53.25 6.7636 55.2367 8.71436 57.6875 8.71436C60.1383 8.71436 62.125 6.7636 62.125 4.35721Z" fill="black"/>
<path d="M88.75 4.35721C88.75 1.95083 86.7633 6.97004e-05 84.3125 6.96711e-05C81.8617 6.96419e-05 79.875 1.95083 79.875 4.35721C79.875 6.7636 81.8617 8.71436 84.3125 8.71436C86.7633 8.71436 88.75 6.7636 88.75 4.35721Z" fill="black"/>
<path d="M115.375 4.35721C115.375 1.95083 113.388 6.97004e-05 110.938 6.96711e-05C108.487 6.96419e-05 106.5 1.95083 106.5 4.35721C106.5 6.7636 108.487 8.71436 110.938 8.71436C113.388 8.71436 115.375 6.7636 115.375 4.35721Z" fill="black"/>
<path d="M142 4.35721C142 1.95083 140.013 6.97004e-05 137.563 6.96711e-05C135.112 6.96419e-05 133.125 1.95083 133.125 4.35721C133.125 6.7636 135.112 8.71436 137.562 8.71436C140.013 8.71436 142 6.7636 142 4.35721Z" fill="black"/>
</g>
<defs>
<clipPath id="clip0_484_7939">
<rect width="61" height="142" fill="white" transform="translate(0 61) rotate(-90)"/>
</clipPath>
</defs>
</svg>
