<svg width="103" height="103" viewBox="0 0 103 103" fill="none" xmlns="http://www.w3.org/2000/svg">
<g filter="url(#filter0_d_484_8116)">
<rect width="65" height="65" rx="32.5" transform="matrix(-1 0 0 1 84 10)" fill="white"/>
</g>
<path d="M50.7523 56.9509C51.1048 57.3034 51.6764 57.3034 52.029 56.9509L57.7742 51.2056C58.1268 50.8531 58.1268 50.2815 57.7742 49.9289C57.4217 49.5763 56.8501 49.5763 56.4975 49.9289L51.3906 55.0358L46.2837 49.9289C45.9312 49.5763 45.3596 49.5763 45.007 49.9289C44.6545 50.2815 44.6545 50.8531 45.007 51.2056L50.7523 56.9509ZM50.4878 27.875V56.3125H52.2934V27.875H50.4878Z" fill="black"/>
<defs>
<filter id="filter0_d_484_8116" x="0.944447" y="0.972223" width="101.111" height="101.111" filterUnits="userSpaceOnUse" color-interpolation-filters="sRGB">
<feFlood flood-opacity="0" result="BackgroundImageFix"/>
<feColorMatrix in="SourceAlpha" type="matrix" values="0 0 0 0 0 0 0 0 0 0 0 0 0 0 0 0 0 0 127 0" result="hardAlpha"/>
<feOffset dy="9.02778"/>
<feGaussianBlur stdDeviation="9.02778"/>
<feComposite in2="hardAlpha" operator="out"/>
<feColorMatrix type="matrix" values="0 0 0 0 0 0 0 0 0 0 0 0 0 0 0 0 0 0 0.14 0"/>
<feBlend mode="normal" in2="BackgroundImageFix" result="effect1_dropShadow_484_8116"/>
<feBlend mode="normal" in="SourceGraphic" in2="effect1_dropShadow_484_8116" result="shape"/>
</filter>
</defs>
</svg>
