<svg width="41" height="41" viewBox="0 0 41 41" fill="none" xmlns="http://www.w3.org/2000/svg">
<circle cx="20.6191" cy="20.3843" r="20" fill="#FFF7D0"/>
<path fill-rule="evenodd" clip-rule="evenodd" d="M20.6196 9.00245C17.4759 9.00245 17.0823 9.01511 15.8475 9.07073C11.6413 9.26043 9.30666 11.5545 9.11374 15.691C9.05583 16.9051 9.04297 17.2933 9.04297 20.384C9.04297 23.4748 9.05583 23.8629 9.11243 25.077C9.30537 29.2098 11.6387 31.5076 15.8462 31.6973C17.0811 31.7517 17.4759 31.7656 20.6196 31.7656C23.7633 31.7656 24.1582 31.753 25.3931 31.6973C29.5929 31.5076 31.9352 29.2136 32.1256 25.077C32.1821 23.8629 32.1962 23.4748 32.1962 20.384C32.1962 17.2933 32.1835 16.9063 32.1268 15.6923C31.9377 11.562 29.6018 9.26169 25.3944 9.07202C24.157 9.0151 23.7633 9.00245 20.6196 9.00245ZM20.6197 11.054C23.7107 11.054 24.0773 11.0666 25.2979 11.121C28.4365 11.2601 29.9016 12.7245 30.0443 15.7862C30.0997 16.9863 30.1099 17.3467 30.1099 20.3856C30.1099 23.4257 30.0983 23.7849 30.0443 24.9838C29.9004 28.0442 28.4391 29.5098 25.2979 29.6502C24.0773 29.7046 23.7132 29.716 20.6197 29.716C17.5287 29.716 17.1621 29.7046 15.9414 29.6502C12.7964 29.5085 11.339 28.0378 11.1963 24.9838C11.1409 23.7836 11.1294 23.4245 11.1294 20.3843C11.1294 17.3455 11.1422 16.9863 11.1963 15.7849C11.3403 12.7245 12.8015 11.2601 15.9427 11.1197C17.1634 11.0654 17.5287 11.054 20.6197 11.054ZM15.4709 17.4616C16.5329 15.6531 18.4956 14.539 20.6196 14.539C23.903 14.539 26.5649 17.1559 26.5649 20.3841C26.5649 23.6123 23.903 26.2291 20.6196 26.2291C18.4956 26.2291 16.5329 25.1151 15.4709 23.3066C14.4089 21.4982 14.4089 19.27 15.4709 17.4616ZM20.6197 24.1779C19.241 24.1779 17.9671 23.4549 17.2778 22.2811C16.5885 21.1072 16.5885 19.661 17.2778 18.4872C17.9671 17.3134 19.241 16.5903 20.6197 16.5903C22.7509 16.5903 24.4786 18.2888 24.4786 20.3841C24.4786 22.4794 22.7509 24.1779 20.6197 24.1779ZM25.4098 14.3093C25.4101 13.5546 26.0327 12.9431 26.8003 12.9435L26.7989 12.9447C27.5662 12.9447 28.1882 13.5562 28.1882 14.3105C28.1882 15.0649 27.5662 15.6763 26.7989 15.6763C26.0314 15.676 25.4094 15.0639 25.4098 14.3093Z" fill="#2D2D2D"/>
</svg>
