<svg width="71" height="73" viewBox="0 0 71 73" fill="none" xmlns="http://www.w3.org/2000/svg">
<path d="M67.34 3.24861C65.6521 1.62971 63.1538 1.03094 60.8244 1.66456L6.5053 16.3931C4.0476 17.033 2.30561 18.861 1.83635 21.1801C1.35696 23.5435 3.03144 26.5468 5.21906 27.8014L22.2035 37.5338C23.9455 38.5349 26.1939 38.2847 27.6354 36.9287L47.0843 18.6773C48.0633 17.7237 49.6838 17.7237 50.6628 18.6773C51.6418 19.5929 51.6418 21.085 50.6628 22.0355L31.1802 40.2869C29.7353 41.6428 29.4652 43.7465 30.5286 45.3844L40.9063 61.3833C42.1216 63.281 44.2147 64.3613 46.5104 64.3613C46.7805 64.3613 47.0843 64.3613 47.3544 64.3264C49.9876 64.0128 52.0807 62.3305 52.8572 59.9545L68.9605 9.36305C69.6694 7.20874 69.028 4.86434 67.34 3.24861" stroke="#E953BC" stroke-width="1.70542"/>
<path d="M1.75391 54.7664L9.21655 47.3037" stroke="#E953BC" stroke-width="1.70542" stroke-linecap="round"/>
<path d="M14.5469 59.0308L22.0095 51.5681" stroke="#E953BC" stroke-width="1.70542" stroke-linecap="round"/>
<path d="M17.7451 71.8237L25.2078 64.3611" stroke="#E953BC" stroke-width="1.70542" stroke-linecap="round"/>
</svg>
