<svg version="1.2" xmlns="http://www.w3.org/2000/svg" viewBox="0 0 41 41" width="41" height="41"><defs><clipPath clipPathUnits="userSpaceOnUse" id="cp1"><path d="m-50.19 8.2h26v23h-26zm24.26 11.74q0.28-0.53 0.34-1.12 0.06-0.59-0.13-1.16-0.2-0.56-0.59-1.01-0.4-0.44-0.94-0.68-0.55-0.25-1.14-0.26-0.59-0.01-1.14 0.23-0.56 0.23-0.96 0.66c-1.82-1.03-4.07-1.62-6.41-1.7l0.67-4.02 2.92 0.45c0.03 0.51 0.24 0.98 0.6 1.34 0.35 0.36 0.83 0.57 1.33 0.6 0.51 0.02 1-0.14 1.39-0.46 0.39-0.32 0.65-0.77 0.73-1.27 0.08-0.5-0.04-1.01-0.31-1.43-0.28-0.42-0.71-0.72-1.19-0.85-0.49-0.12-1.01-0.06-1.46 0.17-0.44 0.23-0.79 0.63-0.96 1.1l-3.33-0.51q-0.16-0.03-0.3 0.07-0.13 0.1-0.16 0.26l-0.76 4.55c-2.39 0.05-4.68 0.65-6.54 1.7q-0.41-0.43-0.96-0.66-0.55-0.24-1.14-0.23-0.61 0.01-1.14 0.26-0.54 0.24-0.94 0.68-0.41 0.45-0.59 1.01-0.19 0.57-0.13 1.16 0.05 0.59 0.34 1.12 0.29 0.52 0.76 0.88-0.3 0.88-0.3 1.81c0 2.1 1.16 4.05 3.27 5.52 2.07 1.43 4.81 2.21 7.72 2.21 2.91 0 5.65-0.78 7.71-2.21 2.12-1.47 3.28-3.42 3.28-5.52q0-0.93-0.3-1.81 0.47-0.36 0.76-0.88zm-1.64 0.6q-0.05 0.14 0.01 0.28 0.35 0.87 0.35 1.81c0 3.82-4.56 6.92-10.17 6.92-5.61 0-10.18-3.1-10.18-6.92q0-0.93 0.35-1.8 0.06-0.14 0.02-0.29-0.05-0.15-0.18-0.23-0.39-0.23-0.65-0.61-0.26-0.38-0.33-0.84-0.06-0.45 0.07-0.89 0.12-0.44 0.44-0.78 0.3-0.34 0.73-0.51 0.43-0.18 0.88-0.15 0.46 0.02 0.87 0.24 0.4 0.22 0.67 0.59 0.09 0.13 0.24 0.16 0.15 0.03 0.29-0.04 0.02-0.01 0.02-0.02c1.87-1.13 4.27-1.75 6.76-1.75 2.49 0 4.89 0.62 6.75 1.75q0.02 0.01 0.03 0.02 0.14 0.07 0.28 0.04 0.15-0.03 0.25-0.16 0.27-0.37 0.67-0.59 0.41-0.22 0.86-0.24 0.46-0.03 0.89 0.15 0.43 0.17 0.73 0.51 0.3 0.34 0.44 0.78 0.13 0.44 0.07 0.89-0.07 0.46-0.33 0.84-0.26 0.38-0.65 0.61-0.13 0.08-0.18 0.23zm-6.64 4.99c-0.98 0.5-2.07 0.77-3.17 0.77-1.11 0-2.19-0.27-3.18-0.77q-0.14-0.08-0.31-0.03-0.15 0.05-0.23 0.2-0.08 0.15-0.03 0.31 0.06 0.16 0.2 0.24c1.1 0.56 2.31 0.86 3.55 0.86 1.23 0 2.45-0.3 3.55-0.86q0.14-0.08 0.2-0.24 0.05-0.16-0.03-0.31-0.07-0.15-0.24-0.2-0.15-0.05-0.31 0.03zm-6.38-3.26c0.23-0.23 0.36-0.54 0.36-0.86q0-0.37-0.21-0.68-0.2-0.3-0.54-0.45-0.35-0.14-0.71-0.07-0.36 0.08-0.63 0.34-0.25 0.26-0.33 0.62-0.07 0.36 0.07 0.71 0.14 0.34 0.45 0.55 0.31 0.2 0.68 0.2c0.32 0 0.63-0.13 0.86-0.36zm8.45-11.9c0.23-0.23 0.54-0.36 0.86-0.36q0.38 0.01 0.68 0.21 0.31 0.21 0.45 0.55 0.14 0.34 0.07 0.7-0.08 0.36-0.33 0.63-0.26 0.26-0.63 0.33-0.36 0.07-0.7-0.07-0.35-0.14-0.55-0.45-0.21-0.31-0.21-0.68c0-0.32 0.13-0.63 0.36-0.86zm-1.17 9.82q-0.37 0-0.68 0.2-0.31 0.21-0.45 0.55-0.14 0.34-0.07 0.71 0.07 0.36 0.34 0.62 0.26 0.26 0.62 0.34 0.36 0.07 0.71-0.07 0.34-0.15 0.54-0.45 0.21-0.31 0.21-0.68c0-0.32-0.13-0.63-0.36-0.86-0.23-0.23-0.54-0.36-0.86-0.36z"/></clipPath></defs><style>.a{fill:#fff7d0}.b{fill:#2d2d2d}.c{fill:#2d2d2d;stroke:#2d2d2d;stroke-width:.4}.d{fill:none;stroke:#2d2d2d}</style><path fill-rule="evenodd" class="a" d="m-95.4 40.4c-11 0-20-9-20-20 0-11.1 9-20 20-20 11.1 0 20 8.9 20 20 0 11-8.9 20-20 20z"/><path fill-rule="evenodd" class="b" d="m-90.6 9.1c4.2 0.2 6.5 2.5 6.7 6.6 0.1 1.2 0.1 1.6 0.1 4.7 0 3.1 0 3.5-0.1 4.7-0.2 4.1-2.5 6.4-6.7 6.6-1.2 0.1-1.6 0.1-4.8 0.1-3.1 0-3.5 0-4.8-0.1-4.2-0.2-6.5-2.5-6.7-6.6 0-1.2-0.1-1.6-0.1-4.7 0-3.1 0.1-3.5 0.1-4.7 0.2-4.1 2.5-6.4 6.7-6.6 1.3-0.1 1.7-0.1 4.8-0.1 3.2 0 3.6 0 4.8 0.1zm-9.5 2c-3.1 0.2-4.6 1.6-4.7 4.7-0.1 1.2-0.1 1.5-0.1 4.6 0 3 0 3.4 0.1 4.6 0.1 3 1.6 4.5 4.7 4.7 1.3 0 1.6 0 4.7 0 3.1 0 3.5 0 4.7 0 3.1-0.2 4.6-1.7 4.7-4.7 0.1-1.2 0.1-1.6 0.1-4.6 0-3.1 0-3.4-0.1-4.6-0.1-3.1-1.6-4.5-4.7-4.7-1.2 0-1.6 0-4.7 0-3.1 0-3.4 0-4.7 0zm-0.4 6.4c1-1.8 3-3 5.1-3 3.3 0 6 2.7 6 5.9 0 3.2-2.7 5.8-6 5.8-2.1 0-4.1-1.1-5.1-2.9-1.1-1.8-1.1-4 0-5.8zm9 2.9c0-2.1-1.8-3.8-3.9-3.8-1.4 0-2.6 0.7-3.3 1.9-0.7 1.2-0.7 2.6 0 3.8 0.7 1.2 1.9 1.9 3.3 1.9 2.1 0 3.9-1.7 3.9-3.8zm0.9-6.1c0-0.7 0.6-1.4 1.4-1.4 0.8 0 1.4 0.7 1.4 1.4 0 0.8-0.6 1.4-1.4 1.4-0.8 0-1.4-0.6-1.4-1.4z"/><path fill-rule="evenodd" class="a" d="m-37.4 40.4c-11 0-20-9-20-20 0-11.1 9-20 20-20 11.1 0 20 8.9 20 20 0 11-8.9 20-20 20z"/><path fill-rule="evenodd" class="a" d="m20.6 40.4c-11 0-20-9-20-20 0-11.1 9-20 20-20 11.1 0 20 8.9 20 20 0 11-8.9 20-20 20z"/><path class="c" d="m29.4 12.2c-1.1 0.5-2.2 0.1-2.8-0.7-0.3-0.4-0.5-0.9-0.5-1.4q0-0.1 0-0.2-0.1-0.1-0.1-0.2-0.1-0.1-0.2-0.1-0.1-0.1-0.3-0.1h-4.5q-0.3 0-0.5 0.2-0.2 0.2-0.2 0.4v16 0.1c0 0.8-0.6 1.3-1.3 1.3-0.8 0-1.5-0.7-1.5-1.5 0-0.7 0.6-1.3 1.3-1.3 0.3-0.1 0.5-0.3 0.5-0.6v-5.3q0-0.2-0.1-0.4-0.2-0.2-0.5-0.2h-0.1c-4.2 0.2-7.4 3.6-7.4 7.8 0 4.4 3.5 7.9 7.8 7.9 4 0 7.4-3.1 7.7-7.1q0.1-0.1 0.1-0.1 0-0.1 0-0.2v-8.5c0.9 0.2 1.9 0.3 3 0.1 0.3 0 0.4-0.3 0.4-0.6v-4.7c0-0.2-0.1-0.4-0.2-0.5-0.2-0.1-0.4-0.1-0.6-0.1zm-3.7 0c0.7 1 2 1.6 3.3 1.4v3.4c-0.9 0.1-1.8 0-2.7-0.3-0.2 0-0.3 0-0.5 0.1q0 0 0 0c-0.2 0.1-0.3 0.3-0.3 0.5v9.1q0 0 0 0 0 0 0 0 0 0 0 0v0.1c-0.2 3.4-3.2 6.2-6.6 6.2-3.6 0-6.6-3-6.6-6.7 0-3.3 2.5-6.1 5.8-6.5v4.1c-1 0.4-1.8 1.3-1.8 2.4 0 1.5 1.2 2.7 2.6 2.7 1.3 0 2.4-1 2.6-2.2q0-0.1 0-0.1 0.1-0.1 0-0.1v-15.6h3.5q0.2 0.9 0.7 1.5h-0.1z"/><path class="b" d="m-26.7 20.8q0.3 0.9 0.3 1.8c0 2.1-1.1 4.1-3.3 5.5-2 1.5-4.8 2.3-7.7 2.3-2.9 0-5.6-0.8-7.7-2.3-2.1-1.4-3.3-3.4-3.3-5.5q0-0.9 0.3-1.8-0.4-0.3-0.7-0.9-0.3-0.5-0.4-1.1 0-0.6 0.2-1.1 0.1-0.6 0.5-1 0.4-0.5 1-0.7 0.5-0.3 1.1-0.3 0.6 0 1.2 0.2 0.5 0.3 0.9 0.7c1.9-1.1 4.2-1.6 6.6-1.7l0.7-4.5q0.1-0.2 0.2-0.3 0.1-0.1 0.3-0.1l3.3 0.5c0.2-0.4 0.5-0.8 1-1.1 0.4-0.2 0.9-0.3 1.4-0.1 0.5 0.1 1 0.4 1.2 0.8 0.3 0.4 0.4 0.9 0.3 1.4 0 0.5-0.3 1-0.7 1.3-0.4 0.3-0.9 0.5-1.4 0.5-0.5-0.1-1-0.3-1.3-0.6-0.4-0.4-0.6-0.9-0.6-1.4l-2.9-0.4-0.7 4c2.3 0.1 4.6 0.7 6.4 1.7q0.4-0.4 1-0.7 0.5-0.2 1.1-0.2 0.6 0 1.1 0.3 0.6 0.2 1 0.7 0.4 0.4 0.6 1 0.2 0.5 0.1 1.1 0 0.6-0.3 1.1-0.3 0.6-0.8 0.9zm-0.7-0.5q0.4-0.2 0.7-0.6 0.2-0.4 0.3-0.8 0.1-0.5-0.1-0.9-0.1-0.5-0.4-0.8-0.3-0.3-0.8-0.5-0.4-0.2-0.8-0.2-0.5 0.1-0.9 0.3-0.4 0.2-0.7 0.6-0.1 0.1-0.2 0.1-0.2 0.1-0.3 0 0 0 0 0c-1.9-1.2-4.3-1.8-6.8-1.8-2.5 0-4.9 0.6-6.7 1.8q0 0-0.1 0-0.1 0.1-0.3 0-0.1 0-0.2-0.1-0.3-0.4-0.7-0.6-0.4-0.2-0.8-0.3-0.5 0-0.9 0.2-0.4 0.2-0.7 0.5-0.4 0.3-0.5 0.8-0.1 0.4 0 0.9 0 0.4 0.3 0.8 0.2 0.4 0.6 0.6 0.2 0.1 0.2 0.2 0.1 0.2 0 0.3-0.4 0.9-0.4 1.8c0 3.8 4.6 7 10.2 7 5.6 0 10.2-3.2 10.2-7q0-0.9-0.4-1.8 0-0.1 0-0.3 0.1-0.1 0.2-0.2zm-6.8 5.2c-1 0.5-2.1 0.8-3.2 0.8-1.1 0-2.2-0.3-3.2-0.8q-0.1 0-0.3 0-0.1 0.1-0.2 0.2-0.1 0.2 0 0.3 0 0.2 0.2 0.2c1.1 0.6 2.3 0.9 3.5 0.9 1.2 0 2.5-0.3 3.6-0.9q0.1 0 0.2-0.2 0-0.1-0.1-0.3 0-0.1-0.2-0.2-0.2 0-0.3 0zm-7.3-2.9q-0.3 0-0.6-0.2-0.3-0.2-0.5-0.5-0.1-0.4-0.1-0.7 0.1-0.4 0.4-0.7 0.2-0.2 0.6-0.3 0.4-0.1 0.7 0.1 0.4 0.1 0.6 0.4 0.2 0.3 0.2 0.7c0 0.3-0.2 0.6-0.4 0.9-0.2 0.2-0.5 0.3-0.9 0.3zm9-11.4q0 0.4 0.2 0.7 0.2 0.3 0.6 0.5 0.3 0.1 0.7 0 0.3 0 0.6-0.3 0.2-0.3 0.3-0.6 0.1-0.4-0.1-0.7-0.1-0.4-0.4-0.6-0.3-0.2-0.7-0.2c-0.3 0-0.6 0.1-0.8 0.4-0.3 0.2-0.4 0.5-0.4 0.8zm-0.8 9q-0.4 0-0.7 0.2-0.3 0.2-0.4 0.5-0.2 0.4-0.1 0.7 0.1 0.4 0.3 0.7 0.3 0.2 0.7 0.3 0.3 0.1 0.7-0.1 0.3-0.1 0.5-0.4 0.2-0.3 0.2-0.7c0-0.3-0.1-0.6-0.4-0.9-0.2-0.2-0.5-0.3-0.8-0.3z"/><g clip-path="url(#cp1)"><path class="d" d="m-26.7 20.8q0.3 0.9 0.3 1.8c0 2.1-1.1 4.1-3.3 5.5-2 1.5-4.8 2.3-7.7 2.3-2.9 0-5.6-0.8-7.7-2.3-2.1-1.4-3.3-3.4-3.3-5.5q0-0.9 0.3-1.8-0.4-0.3-0.7-0.9-0.3-0.5-0.4-1.1 0-0.6 0.2-1.1 0.1-0.6 0.5-1 0.4-0.5 1-0.7 0.5-0.3 1.1-0.3 0.6 0 1.2 0.2 0.5 0.3 0.9 0.7c1.9-1.1 4.2-1.6 6.6-1.7l0.7-4.5q0.1-0.2 0.2-0.3 0.1-0.1 0.3-0.1l3.3 0.5c0.2-0.4 0.5-0.8 1-1.1 0.4-0.2 0.9-0.3 1.4-0.1 0.5 0.1 1 0.4 1.2 0.8 0.3 0.4 0.4 0.9 0.3 1.4 0 0.5-0.3 1-0.7 1.3-0.4 0.3-0.9 0.5-1.4 0.5-0.5-0.1-1-0.3-1.3-0.6-0.4-0.4-0.6-0.9-0.6-1.4l-2.9-0.4-0.7 4c2.3 0.1 4.6 0.7 6.4 1.7q0.4-0.4 1-0.7 0.5-0.2 1.1-0.2 0.6 0 1.1 0.3 0.6 0.2 1 0.7 0.4 0.4 0.6 1 0.2 0.5 0.1 1.1 0 0.6-0.3 1.1-0.3 0.6-0.8 0.9zm-0.7-0.5q0.4-0.2 0.7-0.6 0.2-0.4 0.3-0.8 0.1-0.5-0.1-0.9-0.1-0.5-0.4-0.8-0.3-0.3-0.8-0.5-0.4-0.2-0.8-0.2-0.5 0.1-0.9 0.3-0.4 0.2-0.7 0.6-0.1 0.1-0.2 0.1-0.2 0.1-0.3 0 0 0 0 0c-1.9-1.2-4.3-1.8-6.8-1.8-2.5 0-4.9 0.6-6.7 1.8q0 0-0.1 0-0.1 0.1-0.3 0-0.1 0-0.2-0.1-0.3-0.4-0.7-0.6-0.4-0.2-0.8-0.3-0.5 0-0.9 0.2-0.4 0.2-0.7 0.5-0.4 0.3-0.5 0.8-0.1 0.4 0 0.9 0 0.4 0.3 0.8 0.2 0.4 0.6 0.6 0.2 0.1 0.2 0.2 0.1 0.2 0 0.3-0.4 0.9-0.4 1.8c0 3.8 4.6 7 10.2 7 5.6 0 10.2-3.2 10.2-7q0-0.9-0.4-1.8 0-0.1 0-0.3 0.1-0.1 0.2-0.2zm-6.8 5.2c-1 0.5-2.1 0.8-3.2 0.8-1.1 0-2.2-0.3-3.2-0.8q-0.1 0-0.3 0-0.1 0.1-0.2 0.2-0.1 0.2 0 0.3 0 0.2 0.2 0.2c1.1 0.6 2.3 0.9 3.5 0.9 1.2 0 2.5-0.3 3.6-0.9q0.1 0 0.2-0.2 0-0.1-0.1-0.3 0-0.1-0.2-0.2-0.2 0-0.3 0zm-7.3-2.9q-0.3 0-0.6-0.2-0.3-0.2-0.5-0.5-0.1-0.4-0.1-0.7 0.1-0.4 0.4-0.7 0.2-0.2 0.6-0.3 0.4-0.1 0.7 0.1 0.4 0.1 0.6 0.4 0.2 0.3 0.2 0.7c0 0.3-0.2 0.6-0.4 0.9-0.2 0.2-0.5 0.3-0.9 0.3zm9-11.4q0 0.4 0.2 0.7 0.2 0.3 0.6 0.5 0.3 0.1 0.7 0 0.3 0 0.6-0.3 0.2-0.3 0.3-0.6 0.1-0.4-0.1-0.7-0.1-0.4-0.4-0.6-0.3-0.2-0.7-0.2c-0.3 0-0.6 0.1-0.8 0.4-0.3 0.2-0.4 0.5-0.4 0.8zm-0.8 9q-0.4 0-0.7 0.2-0.3 0.2-0.4 0.5-0.2 0.4-0.1 0.7 0.1 0.4 0.3 0.7 0.3 0.2 0.7 0.3 0.3 0.1 0.7-0.1 0.3-0.1 0.5-0.4 0.2-0.3 0.2-0.7c0-0.3-0.1-0.6-0.4-0.9-0.2-0.2-0.5-0.3-0.8-0.3z"/></g></svg>